RBDS08runT35_grf
version=1
nRows=21
nColumns=19
inDegrees=no
endheader
time	ground_force_r_vx	ground_force_r_vy	ground_force_r_vz	ground_force_r_px	ground_force_r_py	ground_force_r_pz	ground_force_r_mx	ground_force_r_my	ground_force_r_mz	ground_force_l_vx	ground_force_l_vy	ground_force_l_vz	ground_force_l_px	ground_force_l_py	ground_force_l_pz	ground_force_l_mx	ground_force_l_my	ground_force_l_mz
     22.49800000	    105.81028070	   1240.51268091	      8.66507246	      1.90760111	      0.00000000	      0.96248029	     -0.00000000	      2.55727288	      0.00000000	      0.00000000	      0.00000000	      0.00000000	      0.00000000	      0.00000000	      0.00000000	      0.00000000	      0.00000000	      0.00000000
     22.49900000	    108.63560579	   1223.75914053	      9.89371808	      1.90509688	      0.00000000	      0.96222266	     -0.00000000	      2.49131149	      0.00000000	      0.00000000	      0.00000000	      0.00000000	      0.00000000	      0.00000000	      0.00000000	      0.00000000	      0.00000000	      0.00000000
     22.50000000	    111.46093089	   1207.00560014	     11.12236371	      1.90259265	      0.00000000	      0.96196502	     -0.00000000	      2.42535010	      0.00000000	      0.00000000	      0.00000000	      0.00000000	      0.00000000	      0.00000000	      0.00000000	      0.00000000	      0.00000000	      0.00000000
     22.50100000	    114.11654692	   1189.99356537	     12.34080769	      1.90004839	      0.00000000	      0.96168976	     -0.00000000	      2.37408678	      0.00000000	      0.00000000	      0.00000000	      0.00000000	      0.00000000	      0.00000000	      0.00000000	      0.00000000	      0.00000000	      0.00000000
     22.50200000	    116.77216296	   1172.98153060	     13.55925167	      1.89750413	      0.00000000	      0.96141450	     -0.00000000	      2.32282345	      0.00000000	      0.00000000	      0.00000000	      0.00000000	      0.00000000	      0.00000000	      0.00000000	      0.00000000	      0.00000000	      0.00000000
     22.50300000	    119.42777899	   1155.96949582	     14.77769564	      1.89495988	      0.00000000	      0.96113924	     -0.00000000	      2.27156013	      0.00000000	      0.00000000	      0.00000000	      0.00000000	      0.00000000	      0.00000000	      0.00000000	      0.00000000	      0.00000000	      0.00000000
     22.50400000	    121.96535211	   1138.85580235	     15.97622881	      1.89238367	      0.00000000	      0.96085499	     -0.00000000	      2.22969214	      0.00000000	      0.00000000	      0.00000000	      0.00000000	      0.00000000	      0.00000000	      0.00000000	      0.00000000	      0.00000000	      0.00000000
     22.50500000	    124.44390378	   1121.69127953	     17.16480657	      1.88979148	      0.00000000	      0.96056625	     -0.00000000	      2.19252181	      0.00000000	      0.00000000	      0.00000000	      0.00000000	      0.00000000	      0.00000000	      0.00000000	      0.00000000	      0.00000000	      0.00000000
     22.50600000	    126.92245545	   1104.52675670	     18.35338433	      1.88719929	      0.00000000	      0.96027750	     -0.00000000	      2.15535149	      0.00000000	      0.00000000	      0.00000000	      0.00000000	      0.00000000	      0.00000000	      0.00000000	      0.00000000	      0.00000000	      0.00000000
     22.50700000	    129.33796953	   1087.34432894	     19.52534759	      1.88458953	      0.00000000	      0.95998587	     -0.00000000	      2.12248001	      0.00000000	      0.00000000	      0.00000000	      0.00000000	      0.00000000	      0.00000000	      0.00000000	      0.00000000	      0.00000000	      0.00000000
     22.50800000	    131.62740843	   1070.12609131	     20.66408184	      1.88194463	      0.00000000	      0.95968848	     -0.00000000	      2.09820622	      0.00000000	      0.00000000	      0.00000000	      0.00000000	      0.00000000	      0.00000000	      0.00000000	      0.00000000	      0.00000000	      0.00000000
     22.50900000	    133.91684734	   1052.90785368	     21.80281608	      1.87929972	      0.00000000	      0.95939109	     -0.00000000	      2.07393242	      0.00000000	      0.00000000	      0.00000000	      0.00000000	      0.00000000	      0.00000000	      0.00000000	      0.00000000	      0.00000000	      0.00000000
     22.51000000	    136.20628624	   1035.68961605	     22.94155033	      1.87665481	      0.00000000	      0.95909370	     -0.00000000	      2.04965862	      0.00000000	      0.00000000	      0.00000000	      0.00000000	      0.00000000	      0.00000000	      0.00000000	      0.00000000	      0.00000000	      0.00000000
     22.51100000	    138.29016032	   1018.50819911	     24.01062184	      1.87395593	      0.00000000	      0.95879312	     -0.00000000	      2.03655218	      0.00000000	      0.00000000	      0.00000000	      0.00000000	      0.00000000	      0.00000000	      0.00000000	      0.00000000	      0.00000000	      0.00000000
     22.51200000	    140.37403439	   1001.32678217	     25.07969336	      1.87125705	      0.00000000	      0.95849255	     -0.00000000	      2.02344574	      0.00000000	      0.00000000	      0.00000000	      0.00000000	      0.00000000	      0.00000000	      0.00000000	      0.00000000	      0.00000000	      0.00000000
     22.51300000	    142.45790847	    984.14536522	     26.14876488	      1.86855817	      0.00000000	      0.95819198	     -0.00000000	      2.01033930	      0.00000000	      0.00000000	      0.00000000	      0.00000000	      0.00000000	      0.00000000	      0.00000000	      0.00000000	      0.00000000	      0.00000000
     22.51400000	    144.39132361	    967.04301031	     27.15862698	      1.86582499	      0.00000000	      0.95789326	     -0.00000000	      2.00322340	      0.00000000	      0.00000000	      0.00000000	      0.00000000	      0.00000000	      0.00000000	      0.00000000	      0.00000000	      0.00000000	      0.00000000
     22.51500000	    146.24950929	    949.98018642	     28.13888436	      1.86307467	      0.00000000	      0.95759546	     -0.00000000	      1.99910276	      0.00000000	      0.00000000	      0.00000000	      0.00000000	      0.00000000	      0.00000000	      0.00000000	      0.00000000	      0.00000000	      0.00000000
     22.51600000	    148.10769497	    932.91736253	     29.11914173	      1.86032435	      0.00000000	      0.95729767	     -0.00000000	      1.99498213	      0.00000000	      0.00000000	      0.00000000	      0.00000000	      0.00000000	      0.00000000	      0.00000000	      0.00000000	      0.00000000	      0.00000000
     22.51700000	    149.88308878	    915.91837597	     30.06380981	      1.85755903	      0.00000000	      0.95700291	     -0.00000000	      1.99301121	      0.00000000	      0.00000000	      0.00000000	      0.00000000	      0.00000000	      0.00000000	      0.00000000	      0.00000000	      0.00000000	      0.00000000
     22.51800000	    151.49289885	    899.04706411	     30.93729930	      1.85476369	      0.00000000	      0.95671423	     -0.00000000	      1.99533971	      0.00000000	      0.00000000	      0.00000000	      0.00000000	      0.00000000	      0.00000000	      0.00000000	      0.00000000	      0.00000000	      0.00000000
